<svg xmlns="http://www.w3.org/2000/svg" xmlns:xlink="http://www.w3.org/1999/xlink" viewBox="0 0 281 67" preserveAspectRatio="xMidYMid" style="display: block; shape-rendering: auto; background: transparent;" width="281" height="67"><style type="text/css">
  .ld-text text {
    text-anchor: middle;
    dominant-baseline: middle;
    font-size: 65px;
    opacity: 0;
    user-select: none;
    pointer-events: none;
  }
</style>
<g style="transform-origin:140.5px 33.5px;transform:scale(1)" class="ld-text">
<g transform="translate(140.5,33.5)">
  <g transform="scale(0.8125) translate(0,0)"><g class="path" style="opacity: 1; transform-origin: -90.96px -10.4px; transform: matrix3d(0.91, 0, 0, 0, 0, 0.91, 0, 0, 0, 0, 0.91, 0, 0, 0, 0, 1); animation: 1.44928s linear -0.765217s infinite normal forwards running animate-n328q7o804c; transform-box: view-box;"><path d="M46.80-20.80L60.32 28.32L63.52 28.32L63.52 41.44L32.16 41.44L32.16 28.32L36.96 28.32L35.68 21.92L24.80 21.92L23.52 28.32L28.32 28.32L28.32 41.44L0.96 41.44L0.96 28.32L4.16 28.32L17.68-20.80L46.80-20.80 zM29.84-2.48L26.56 13.44L33.92 13.44L30.64-2.48L29.84-2.48" style="fill: rgb(23, 53, 19);" transform="translate(-123.200,-20.720)"></path></g><g class="path" style="opacity: 1; transform-origin: -32.24px 6.8px; transform: matrix3d(0.91, 0, 0, 0, 0, 0.91, 0, 0, 0, 0, 0.91, 0, 0, 0, 0, 1); animation: 1.44928s linear -0.573913s infinite normal forwards running animate-n328q7o804c; transform-box: view-box;"><path d="M65.60 59.20L65.60 46.08L69.12 46.08L69.12 10.08L65.60 10.08L65.60-3.04L87.52-3.04L87.52 2.40Q89.52-0.16 92.68-2.16Q95.84-4.16 99.92-4.16L99.92-4.16Q108.08-4.16 112.20 1.92Q116.32 8 116.32 19.20L116.32 19.20Q116.32 30.40 112.20 36.48Q108.08 42.56 99.92 42.56L99.92 42.56Q95.84 42.56 92.68 40.56Q89.52 38.56 87.52 36L87.52 36L87.52 46.08L93.04 46.08L93.04 59.20L65.60 59.20 zM92.16 28.32Q94.48 28.32 95.64 27.08Q96.80 25.84 96.80 23.20L96.80 23.20L96.80 15.20Q96.80 12.56 95.64 11.32Q94.48 10.08 92.16 10.08L92.16 10.08Q89.84 10.08 88.68 11.32Q87.52 12.56 87.52 15.20L87.52 15.20L87.52 23.20Q87.52 25.84 88.68 27.08Q89.84 28.32 92.16 28.32L92.16 28.32" style="fill: rgb(255, 255, 255);" transform="translate(-123.200,-20.720)"></path></g><g class="path" style="opacity: 1; transform-origin: 20.4px 6.8px; transform: matrix3d(0.91, 0, 0, 0, 0, 0.91, 0, 0, 0, 0, 0.91, 0, 0, 0, 0, 1); animation: 1.44928s linear -0.382609s infinite normal forwards running animate-n328q7o804c; transform-box: view-box;"><path d="M118.24 59.20L118.24 46.08L121.76 46.08L121.76 10.08L118.24 10.08L118.24-3.04L140.16-3.04L140.16 2.40Q142.16-0.16 145.32-2.16Q148.48-4.16 152.56-4.16L152.56-4.16Q160.72-4.16 164.84 1.92Q168.96 8 168.96 19.20L168.96 19.20Q168.96 30.40 164.84 36.48Q160.72 42.56 152.56 42.56L152.56 42.56Q148.48 42.56 145.32 40.56Q142.16 38.56 140.16 36L140.16 36L140.16 46.08L145.68 46.08L145.68 59.20L118.24 59.20 zM144.80 28.32Q147.12 28.32 148.28 27.08Q149.44 25.84 149.44 23.20L149.44 23.20L149.44 15.20Q149.44 12.56 148.28 11.32Q147.12 10.08 144.80 10.08L144.80 10.08Q142.48 10.08 141.32 11.32Q140.16 12.56 140.16 15.20L140.16 15.20L140.16 23.20Q140.16 25.84 141.32 27.08Q142.48 28.32 144.80 28.32L144.80 28.32" style="fill: rgb(23, 53, 19);" transform="translate(-123.200,-20.720)"></path></g><g class="path" style="opacity: 1; transform-origin: 60.72px -10.36px; transform: matrix3d(0.91, 0, 0, 0, 0, 0.91, 0, 0, 0, 0, 0.91, 0, 0, 0, 0, 1); animation: 1.44928s linear -0.191304s infinite normal forwards running animate-n328q7o804c; transform-box: view-box;"><path d="M196.64 41.52L171.20 41.52L171.20 28.32L174.72 28.32L174.72-7.68L171.20-7.68L171.20-20.80L193.12-20.80L193.12 28.32L196.64 28.32L196.64 41.52" style="fill: rgb(255, 255, 255);" transform="translate(-123.200,-20.720)"></path></g><g class="path" style="opacity: 1; transform-origin: 99.76px 7.16px; transform: matrix3d(0.91, 0, 0, 0, 0, 0.91, 0, 0, 0, 0, 0.91, 0, 0, 0, 0, 1); animation: 1.44928s linear 0s infinite normal forwards running animate-n328q7o804c; transform-box: view-box;"><path d="M225.12-3.04L247.36-3.04L247.36 10.08L244.32 10.08L233.84 37.84Q229.92 48.32 224.88 53.56Q219.84 58.80 211.60 58.80L211.60 58.80Q208.24 58.80 204.80 58.12Q201.36 57.44 198.56 56.24L198.56 56.24L198.56 41.76L209.60 41.76L209.60 42.56Q209.60 44.56 211.68 44.56L211.68 44.56Q213.52 44.56 214.48 42.80L214.48 42.80L201.84 10.08L198.80 10.08L198.80-3.04L222.56-3.04L222.56 10.08L219.84 10.08L224 22.56L227.84 10.08L225.12 10.08L225.12-3.04" style="fill: rgb(23, 53, 19);" transform="translate(-123.200,-20.720)"></path></g></g><text dy="0.35em" fill="#173513" font-family="Alfa Slab One" font-size="65">Apply</text>
</g>
</g><style type="text/css">@keyframes animate-n328q7o804c { 0.00% {transform: translate(0.00px,0.00px) rotate(0.00deg) scale(0.91, 0.91) skew(0deg, 0.00deg) ;opacity: 1.00;}4.00% {transform: translate(0.00px,0.00px) rotate(0.00deg) scale(0.91, 0.91) ;}8.00% {animation-timing-function: cubic-bezier(0.69,0.60,0.35,0.27);transform: translate(0.00px,0.00px) rotate(0.00deg) scale(0.91, 0.91) ;}14.00% {transform: translate(0.00px,0.00px) rotate(0.00deg) scale(0.93, 0.93) ;}18.00% {transform: translate(0.00px,0.00px) rotate(0.00deg) scale(0.94, 0.94) ;}22.00% {animation-timing-function: cubic-bezier(0.67,0.66,0.34,0.33);transform: translate(0.00px,0.00px) rotate(0.00deg) scale(0.96, 0.96) ;}26.00% {transform: translate(0.00px,0.00px) rotate(0.00deg) scale(0.97, 0.97) ;}30.00% {transform: translate(0.00px,0.00px) rotate(0.00deg) scale(0.99, 0.99) ;}34.00% {animation-timing-function: cubic-bezier(0.65,0.71,0.32,0.38);transform: translate(0.00px,0.00px) rotate(0.00deg) scale(1.01, 1.01) ;}40.00% {animation-timing-function: cubic-bezier(0.64,0.74,0.31,0.41);transform: translate(0.00px,0.00px) rotate(0.00deg) scale(1.02, 1.02) ;}46.00% {animation-timing-function: cubic-bezier(0.60,0.91,0.23,0.63);transform: translate(0.00px,0.00px) rotate(0.00deg) scale(1.03, 1.03) ;}50.00% {transform: translate(0.00px,0.00px) rotate(0.00deg) scale(1.03, 1.03) ;}54.00% {transform: translate(0.00px,0.00px) rotate(0.00deg) scale(1.03, 1.03) ;}58.00% {animation-timing-function: cubic-bezier(0.69,0.60,0.35,0.27);transform: translate(0.00px,0.00px) rotate(0.00deg) scale(1.03, 1.03) ;}64.00% {transform: translate(0.00px,0.00px) rotate(0.00deg) scale(1.01, 1.01) ;}68.00% {transform: translate(0.00px,0.00px) rotate(0.00deg) scale(1.00, 1.00) ;}72.00% {animation-timing-function: cubic-bezier(0.67,0.66,0.34,0.33);transform: translate(0.00px,0.00px) rotate(0.00deg) scale(0.98, 0.98) ;}76.00% {animation-timing-function: cubic-bezier(0.66,0.68,0.33,0.35);transform: translate(0.00px,0.00px) rotate(0.00deg) scale(0.97, 0.97) ;}82.00% {animation-timing-function: cubic-bezier(0.65,0.71,0.32,0.38);transform: translate(0.00px,0.00px) rotate(0.00deg) scale(0.94, 0.94) ;}88.00% {animation-timing-function: cubic-bezier(0.65,0.73,0.31,0.40);transform: translate(0.00px,0.00px) rotate(0.00deg) scale(0.92, 0.92) ;}94.00% {animation-timing-function: cubic-bezier(0.63,0.80,0.28,0.48);transform: translate(0.00px,0.00px) rotate(0.00deg) scale(0.91, 0.91) ;}100.00% {animation-timing-function: cubic-bezier(0.63,0.80,0.28,0.48);transform: translate(0.00px,0.00px) rotate(0.00deg) scale(0.91, 0.91) ;} }</style><!-- [ldio] generated by https://loading.io --></svg>