<svg xmlns="http://www.w3.org/2000/svg" xmlns:xlink="http://www.w3.org/1999/xlink" viewBox="0 0 281 250" preserveAspectRatio="xMidYMid" style="display: block; shape-rendering: auto; background: transparent;" width="281" height="250"><style type="text/css">
  .ld-text text {
    text-anchor: middle;
    dominant-baseline: middle;
    font-size: 65px;
    opacity: 0;
    user-select: none;
    pointer-events: none;
  }
</style>
<g style="transform-origin:140.5px 125px;transform:scale(1)" class="ld-text">
<g transform="translate(140.5,125)">
  <g transform="scale(0.8125) translate(0,0)"><g class="path" style="opacity: 1; transform-origin: -51.12px -2.78px; transform: matrix3d(0.91, 0, 0, 0, 0, 0.91, 0, 0, 0, 0, 0.91, 0, 0, 0, 0, 1); animation: 1.44928s linear -0.637681s infinite normal forwards running animate-n328q7o804c; transform-box: view-box;"><path d="M21.84 56.69Q15.68 56.69 10.16 55.29Q4.64 53.89 0.96 51.41L0.96 51.41L0.96 37.33L16.96 37.33L16.96 38.13Q16.96 42.45 21.12 42.45L21.12 42.45Q23.28 42.45 24.36 41.29Q25.44 40.13 25.44 37.65L25.44 37.65L25.44 6.45L18.24 6.45L18.24-6.67L51.84-6.67L51.84 6.45L47.84 6.45L47.84 33.33Q47.84 45.09 40.96 50.89Q34.08 56.69 21.84 56.69L21.84 56.69" style="fill: rgb(23, 53, 19);" transform="translate(-77.520,-27.787)"></path></g><g class="path" style="opacity: 1; transform-origin: 1.04px 5.54px; transform: matrix3d(0.91, 0, 0, 0, 0, 0.91, 0, 0, 0, 0, 0.91, 0, 0, 0, 0, 1); animation: 1.44928s linear -0.318841s infinite normal forwards running animate-n328q7o804c; transform-box: view-box;"><path d="M78.56 56.69Q67.20 56.69 60.80 50.73Q54.40 44.77 54.40 33.33L54.40 33.33Q54.40 21.89 60.80 15.93Q67.20 9.97 78.56 9.97L78.56 9.97Q90.08 9.97 96.40 16.01Q102.72 22.05 102.72 33.33L102.72 33.33Q102.72 44.77 96.32 50.73Q89.92 56.69 78.56 56.69L78.56 56.69 zM78.56 42.45Q80.88 42.45 82.04 41.21Q83.20 39.97 83.20 37.33L83.20 37.33L83.20 29.33Q83.20 26.69 82.04 25.45Q80.88 24.21 78.56 24.21L78.56 24.21Q76.24 24.21 75.08 25.45Q73.92 26.69 73.92 29.33L73.92 29.33L73.92 37.33Q73.92 39.97 75.08 41.21Q76.24 42.45 78.56 42.45L78.56 42.45" style="fill: rgb(255, 255, 255);" transform="translate(-77.520,-27.787)"></path></g><g class="path" style="opacity: 1; transform-origin: 53.12px -2.78px; transform: matrix3d(0.91, 0, 0, 0, 0, 0.91, 0, 0, 0, 0, 0.91, 0, 0, 0, 0, 1); animation: 1.44928s linear 0s infinite normal forwards running animate-n328q7o804c; transform-box: view-box;"><path d="M139.60 56.69Q135.52 56.69 132.36 54.69Q129.20 52.69 127.20 50.13L127.20 50.13L127.20 55.57L105.28 55.57L105.28 42.45L108.80 42.45L108.80 6.45L105.28 6.45L105.28-6.67L127.20-6.67L127.20 16.53Q129.20 13.97 132.36 11.97Q135.52 9.97 139.60 9.97L139.60 9.97Q147.76 9.97 151.88 16.05Q156 22.13 156 33.33L156 33.33Q156 44.53 151.88 50.61Q147.76 56.69 139.60 56.69L139.60 56.69 zM131.84 42.45Q134.16 42.45 135.32 41.21Q136.48 39.97 136.48 37.33L136.48 37.33L136.48 29.33Q136.48 26.69 135.32 25.45Q134.16 24.21 131.84 24.21L131.84 24.21Q129.52 24.21 128.36 25.45Q127.20 26.69 127.20 29.33L127.20 29.33L127.20 37.33Q127.20 39.97 128.36 41.21Q129.52 42.45 131.84 42.45L131.84 42.45" style="fill: rgb(23, 53, 19);" transform="translate(-77.520,-27.787)"></path></g></g><text dy="0.35em" fill="#173513" font-family="Alfa Slab One" font-size="65">Job</text>
</g>
</g><style type="text/css">@keyframes animate-n328q7o804c { 0.00% {transform: translate(0.00px,0.00px) rotate(0.00deg) scale(0.91, 0.91) skew(0deg, 0.00deg) ;opacity: 1.00;}4.00% {transform: translate(0.00px,0.00px) rotate(0.00deg) scale(0.91, 0.91) ;}8.00% {animation-timing-function: cubic-bezier(0.69,0.60,0.35,0.27);transform: translate(0.00px,0.00px) rotate(0.00deg) scale(0.91, 0.91) ;}14.00% {transform: translate(0.00px,0.00px) rotate(0.00deg) scale(0.93, 0.93) ;}18.00% {transform: translate(0.00px,0.00px) rotate(0.00deg) scale(0.94, 0.94) ;}22.00% {animation-timing-function: cubic-bezier(0.67,0.66,0.34,0.33);transform: translate(0.00px,0.00px) rotate(0.00deg) scale(0.96, 0.96) ;}26.00% {transform: translate(0.00px,0.00px) rotate(0.00deg) scale(0.97, 0.97) ;}30.00% {transform: translate(0.00px,0.00px) rotate(0.00deg) scale(0.99, 0.99) ;}34.00% {animation-timing-function: cubic-bezier(0.65,0.71,0.32,0.38);transform: translate(0.00px,0.00px) rotate(0.00deg) scale(1.01, 1.01) ;}40.00% {animation-timing-function: cubic-bezier(0.64,0.74,0.31,0.41);transform: translate(0.00px,0.00px) rotate(0.00deg) scale(1.02, 1.02) ;}46.00% {animation-timing-function: cubic-bezier(0.60,0.91,0.23,0.63);transform: translate(0.00px,0.00px) rotate(0.00deg) scale(1.03, 1.03) ;}50.00% {transform: translate(0.00px,0.00px) rotate(0.00deg) scale(1.03, 1.03) ;}54.00% {transform: translate(0.00px,0.00px) rotate(0.00deg) scale(1.03, 1.03) ;}58.00% {animation-timing-function: cubic-bezier(0.69,0.60,0.35,0.27);transform: translate(0.00px,0.00px) rotate(0.00deg) scale(1.03, 1.03) ;}64.00% {transform: translate(0.00px,0.00px) rotate(0.00deg) scale(1.01, 1.01) ;}68.00% {transform: translate(0.00px,0.00px) rotate(0.00deg) scale(1.00, 1.00) ;}72.00% {animation-timing-function: cubic-bezier(0.67,0.66,0.34,0.33);transform: translate(0.00px,0.00px) rotate(0.00deg) scale(0.98, 0.98) ;}76.00% {animation-timing-function: cubic-bezier(0.66,0.68,0.33,0.35);transform: translate(0.00px,0.00px) rotate(0.00deg) scale(0.97, 0.97) ;}82.00% {animation-timing-function: cubic-bezier(0.65,0.71,0.32,0.38);transform: translate(0.00px,0.00px) rotate(0.00deg) scale(0.94, 0.94) ;}88.00% {animation-timing-function: cubic-bezier(0.65,0.73,0.31,0.40);transform: translate(0.00px,0.00px) rotate(0.00deg) scale(0.92, 0.92) ;}94.00% {animation-timing-function: cubic-bezier(0.63,0.80,0.28,0.48);transform: translate(0.00px,0.00px) rotate(0.00deg) scale(0.91, 0.91) ;}100.00% {animation-timing-function: cubic-bezier(0.63,0.80,0.28,0.48);transform: translate(0.00px,0.00px) rotate(0.00deg) scale(0.91, 0.91) ;} }</style><!-- [ldio] generated by https://loading.io --></svg>