<svg xmlns="http://www.w3.org/2000/svg" xmlns:xlink="http://www.w3.org/1999/xlink" viewBox="0 0 281 70" preserveAspectRatio="xMidYMid" style="display: block; shape-rendering: auto; background: transparent;" width="281" height="70"><style type="text/css">
  .ld-text text {
    text-anchor: middle;
    dominant-baseline: middle;
    font-size: 80px;
    opacity: 0;
    user-select: none;
    pointer-events: none;
  }
</style>
<g style="transform-origin:140.5px 35px;transform:scale(1)" class="ld-text">
<g transform="translate(140.5,35)">
  <g transform="scale(1.0000) translate(0,0)"><g class="path" style="opacity: 1; transform-origin: -74.44px -3.21px; transform: matrix3d(0.91, 0, 0, 0, 0, 0.91, 0, 0, 0, 0, 0.91, 0, 0, 0, 0, 1); animation: 1.49254s linear -0.78806s infinite normal forwards running animate-mx5jcwnog9; transform-box: view-box;"><path d="M31.68 56.93Q17.04 56.93 9.08 49.25Q1.12 41.57 1.12 24.69L1.12 24.69Q1.12 7.81 9.08 0.13Q17.04-7.55 31.68-7.55L31.68-7.55Q46.32-7.55 54.28 0.13Q62.24 7.81 62.24 24.69L62.24 24.69Q62.24 41.57 54.28 49.25Q46.32 56.93 31.68 56.93L31.68 56.93 zM31.68 42.69Q34.40 42.69 35.76 41.25Q37.12 39.81 37.12 36.77L37.12 36.77L37.12 12.61Q37.12 9.57 35.76 8.13Q34.40 6.69 31.68 6.69L31.68 6.69Q28.96 6.69 27.60 8.13Q26.24 9.57 26.24 12.61L26.24 12.61L26.24 36.77Q26.24 39.89 27.60 41.29Q28.96 42.69 31.68 42.69L31.68 42.69" style="fill: rgb(23, 53, 19);" transform="translate(-106.120,-27.904)"></path></g><g class="path" style="opacity: 1; transform-origin: -23.68px -3.77px; transform: matrix3d(0.91, 0, 0, 0, 0, 0.91, 0, 0, 0, 0, 0.91, 0, 0, 0, 0, 1); animation: 1.49254s linear -0.591045s infinite normal forwards running animate-mx5jcwnog9; transform-box: view-box;"><path d="M64.80 55.81L64.80 42.69L68.32 42.69L68.32 24.45L64.80 24.45L64.80 11.33L68.48 11.33Q68.48 1.57 73.24-2.99Q78-7.55 87.12-7.55L87.12-7.55Q91.52-7.55 95-6.91Q98.48-6.27 100.08-5.47L100.08-5.47L100.08 7.09Q95.84 6.69 92.24 6.69L92.24 6.69Q89.12 6.69 87.92 7.73Q86.72 8.77 86.72 11.33L86.72 11.33L92.96 11.33L92.96 24.45L86.72 24.45L86.72 42.69L92.96 42.69L92.96 55.81L64.80 55.81" style="fill: rgb(255, 255, 255);" transform="translate(-106.120,-27.904)"></path></g><g class="path" style="opacity: 1; transform-origin: 7.04px -3.77px; transform: matrix3d(0.91, 0, 0, 0, 0, 0.91, 0, 0, 0, 0, 0.91, 0, 0, 0, 0, 1); animation: 1.49254s linear -0.39403s infinite normal forwards running animate-mx5jcwnog9; transform-box: view-box;"><path d="M95.52 55.81L95.52 42.69L99.04 42.69L99.04 24.45L95.52 24.45L95.52 11.33L99.20 11.33Q99.20 1.57 103.96-2.99Q108.72-7.55 117.84-7.55L117.84-7.55Q122.24-7.55 125.72-6.91Q129.20-6.27 130.80-5.47L130.80-5.47L130.80 7.09Q126.56 6.69 122.96 6.69L122.96 6.69Q119.84 6.69 118.64 7.73Q117.44 8.77 117.44 11.33L117.44 11.33L123.68 11.33L123.68 24.45L117.44 24.45L117.44 42.69L123.68 42.69L123.68 55.81L95.52 55.81" style="fill: rgb(23, 53, 19);" transform="translate(-106.120,-27.904)"></path></g><g class="path" style="opacity: 1; transform-origin: 42.52px 5.67px; transform: matrix3d(0.91, 0, 0, 0, 0, 0.91, 0, 0, 0, 0, 0.91, 0, 0, 0, 0, 1); animation: 1.49254s linear -0.197015s infinite normal forwards running animate-mx5jcwnog9; transform-box: view-box;"><path d="M150.08 56.93Q138.72 56.93 132.32 50.97Q125.92 45.01 125.92 33.57L125.92 33.57Q125.92 22.13 132.32 16.17Q138.72 10.21 150.08 10.21L150.08 10.21Q161.36 10.21 166.36 16.09Q171.36 21.97 171.36 30.69L171.36 30.69L171.36 36.45L145.44 36.45L145.44 36.93Q145.44 39.89 147.20 41.29Q148.96 42.69 153.04 42.69L153.04 42.69Q157.92 42.69 162.32 41.97Q166.72 41.25 170 40.13L170 40.13L170 52.93Q167.20 54.45 161.80 55.69Q156.40 56.93 150.08 56.93L150.08 56.93 zM145.44 27.65L154.72 27.65L154.72 26.69Q154.72 23.97 153.56 22.77Q152.40 21.57 150.08 21.57L150.08 21.57Q147.76 21.57 146.60 22.81Q145.44 24.05 145.44 26.69L145.44 26.69L145.44 27.65" style="fill: rgb(255, 255, 255);" transform="translate(-106.120,-27.904)"></path></g><g class="path" style="opacity: 1; transform-origin: 87.52px 5.11px; transform: matrix3d(0.91, 0, 0, 0, 0, 0.91, 0, 0, 0, 0, 0.91, 0, 0, 0, 0, 1); animation: 1.49254s linear 0s infinite normal forwards running animate-mx5jcwnog9; transform-box: view-box;"><path d="M207.92 10.21Q209.52 10.21 210.96 10.53Q212.40 10.85 213.36 11.33L213.36 11.33L213.36 26.61Q210.08 25.25 206.32 25.25L206.32 25.25Q201.28 25.25 198.56 27.89Q195.84 30.53 195.84 35.73L195.84 35.73L195.84 42.69L203.04 42.69L203.04 55.81L173.92 55.81L173.92 42.69L177.44 42.69L177.44 24.45L173.92 24.45L173.92 11.33L195.84 11.33L195.84 17.17Q198.08 13.81 200.96 12.01Q203.84 10.21 207.92 10.21L207.92 10.21" style="fill: rgb(23, 53, 19);" transform="translate(-106.120,-27.904)"></path></g></g><text dy="0.35em" fill="#173513" font-family="Alfa Slab One" font-size="80">Offer</text>
</g>
</g><style type="text/css">@keyframes animate-mx5jcwnog9 { 0.00% {transform: translate(0.00px,0.00px) rotate(0.00deg) scale(0.91, 0.91) skew(0deg, 0.00deg) ;opacity: 1.00;}4.00% {transform: translate(0.00px,0.00px) rotate(0.00deg) scale(0.91, 0.91) ;}8.00% {animation-timing-function: cubic-bezier(0.69,0.60,0.35,0.27);transform: translate(0.00px,0.00px) rotate(0.00deg) scale(0.91, 0.91) ;}14.00% {transform: translate(0.00px,0.00px) rotate(0.00deg) scale(0.93, 0.93) ;}18.00% {transform: translate(0.00px,0.00px) rotate(0.00deg) scale(0.94, 0.94) ;}22.00% {animation-timing-function: cubic-bezier(0.67,0.66,0.34,0.33);transform: translate(0.00px,0.00px) rotate(0.00deg) scale(0.96, 0.96) ;}26.00% {transform: translate(0.00px,0.00px) rotate(0.00deg) scale(0.97, 0.97) ;}30.00% {transform: translate(0.00px,0.00px) rotate(0.00deg) scale(0.99, 0.99) ;}34.00% {animation-timing-function: cubic-bezier(0.65,0.71,0.32,0.38);transform: translate(0.00px,0.00px) rotate(0.00deg) scale(1.01, 1.01) ;}40.00% {animation-timing-function: cubic-bezier(0.64,0.74,0.31,0.41);transform: translate(0.00px,0.00px) rotate(0.00deg) scale(1.02, 1.02) ;}46.00% {animation-timing-function: cubic-bezier(0.60,0.91,0.23,0.63);transform: translate(0.00px,0.00px) rotate(0.00deg) scale(1.03, 1.03) ;}50.00% {transform: translate(0.00px,0.00px) rotate(0.00deg) scale(1.03, 1.03) ;}54.00% {transform: translate(0.00px,0.00px) rotate(0.00deg) scale(1.03, 1.03) ;}58.00% {animation-timing-function: cubic-bezier(0.69,0.60,0.35,0.27);transform: translate(0.00px,0.00px) rotate(0.00deg) scale(1.03, 1.03) ;}64.00% {transform: translate(0.00px,0.00px) rotate(0.00deg) scale(1.01, 1.01) ;}68.00% {transform: translate(0.00px,0.00px) rotate(0.00deg) scale(1.00, 1.00) ;}72.00% {animation-timing-function: cubic-bezier(0.67,0.66,0.34,0.33);transform: translate(0.00px,0.00px) rotate(0.00deg) scale(0.98, 0.98) ;}76.00% {animation-timing-function: cubic-bezier(0.66,0.68,0.33,0.35);transform: translate(0.00px,0.00px) rotate(0.00deg) scale(0.97, 0.97) ;}82.00% {animation-timing-function: cubic-bezier(0.65,0.71,0.32,0.38);transform: translate(0.00px,0.00px) rotate(0.00deg) scale(0.94, 0.94) ;}88.00% {animation-timing-function: cubic-bezier(0.65,0.73,0.31,0.40);transform: translate(0.00px,0.00px) rotate(0.00deg) scale(0.92, 0.92) ;}94.00% {animation-timing-function: cubic-bezier(0.63,0.80,0.28,0.48);transform: translate(0.00px,0.00px) rotate(0.00deg) scale(0.91, 0.91) ;}100.00% {animation-timing-function: cubic-bezier(0.63,0.80,0.28,0.48);transform: translate(0.00px,0.00px) rotate(0.00deg) scale(0.91, 0.91) ;} }</style><!-- [ldio] generated by https://loading.io --></svg>